<svg xmlns="http://www.w3.org/2000/svg" xmlns:xlink="http://www.w3.org/1999/xlink" width="500" zoomAndPan="magnify" viewBox="0 0 375 374.999991" height="500" preserveAspectRatio="xMidYMid meet" version="1.0"><defs><g/><clipPath id="d9c3155c96"><path d="M 67 117.660156 L 308 117.660156 L 308 185.160156 L 67 185.160156 Z M 67 117.660156 " clip-rule="nonzero"/></clipPath><clipPath id="7842e3d01a"><path d="M 78 133 L 298 133 L 298 185.160156 L 78 185.160156 Z M 78 133 " clip-rule="nonzero"/></clipPath></defs><g clip-path="url(#d9c3155c96)"><path fill="#ffffff" d="M 170.816406 136.476562 L 160.175781 146.257812 C 159.808594 146.597656 159.589844 147.066406 159.570312 147.566406 L 159.464844 150.125 C 159.445312 150.507812 159.277344 150.871094 158.992188 151.128906 L 155.128906 154.644531 C 155 154.761719 154.828125 154.824219 154.65625 154.820312 L 152.125 154.757812 C 151.820312 154.75 151.527344 154.878906 151.324219 155.105469 L 147.511719 159.441406 C 147.300781 159.679688 147.324219 160.042969 147.5625 160.25 L 155.035156 166.800781 C 155.261719 167 155.605469 166.988281 155.816406 166.777344 L 160.519531 162.074219 C 160.75 161.839844 160.871094 161.515625 160.832031 161.1875 C 160.742188 160.449219 161.203125 159.875 161.203125 159.875 C 162.0625 158.929688 162.761719 158.371094 163.785156 157.78125 C 169.449219 154.992188 174.289062 159.832031 174.289062 159.832031 L 202.265625 185.511719 L 158.371094 185.511719 L 117.160156 137.300781 L 74.441406 185.511719 L 67.054688 185.511719 L 74.441406 177.472656 L 74.441406 155.566406 L 83.546875 155.566406 L 83.546875 167.136719 L 115.953125 130.871094 Z M 307.941406 185.511719 L 301.703125 185.511719 L 266.589844 147.6875 L 229.507812 185.511719 L 215.722656 185.511719 C 216.128906 184.703125 177.949219 153.332031 179.074219 145.554688 C 180.523438 135.546875 194.445312 134.507812 194.445312 134.507812 C 186.625 130.621094 175.464844 133.25 175.464844 133.25 L 187.363281 122.089844 L 220.644531 117.660156 L 243.78125 144.570312 L 266.753906 141.125 Z M 239.1875 144.898438 L 220.726562 123.15625 L 196.933594 152.53125 L 191.601562 152.777344 L 202.265625 163.03125 L 222.285156 146.621094 Z M 239.1875 144.898438 " fill-opacity="1" fill-rule="nonzero"/></g><g clip-path="url(#7842e3d01a)"><path fill="#ffffff" d="M 297.191406 185.511719 L 293.828125 185.511719 L 264.292969 154.292969 L 266.136719 152.242188 Z M 265.277344 170.742188 L 258.878906 170.742188 L 258.878906 177.140625 L 265.277344 177.140625 Z M 273.863281 170.742188 L 267.464844 170.742188 L 267.464844 177.140625 L 273.863281 177.140625 Z M 265.277344 179.113281 L 258.878906 179.113281 L 258.878906 185.511719 L 265.277344 185.511719 Z M 273.863281 179.113281 L 267.464844 179.113281 L 267.464844 185.511719 L 273.863281 185.511719 Z M 114.480469 167.707031 L 106.765625 167.707031 L 106.765625 175.421875 L 114.480469 175.421875 Z M 124.832031 167.707031 L 117.117188 167.707031 L 117.117188 175.421875 L 124.832031 175.421875 Z M 114.480469 177.796875 L 106.765625 177.796875 L 106.765625 185.511719 L 114.480469 185.511719 Z M 124.832031 177.796875 L 117.117188 177.796875 L 117.117188 185.511719 L 124.832031 185.511719 Z M 221.746094 133.359375 L 218.160156 133.359375 L 218.160156 136.945312 L 221.746094 136.945312 Z M 226.558594 133.359375 L 222.972656 133.359375 L 222.972656 136.945312 L 226.558594 136.945312 Z M 221.746094 138.046875 L 218.160156 138.046875 L 218.160156 141.632812 L 221.746094 141.632812 Z M 226.558594 138.046875 L 222.972656 138.046875 L 222.972656 141.632812 L 226.558594 141.632812 Z M 117.121094 142.164062 L 78.761719 185.511719 L 81.933594 185.511719 L 118.90625 144.179688 Z M 117.121094 142.164062 " fill-opacity="1" fill-rule="nonzero"/></g><g fill="#ffffff" fill-opacity="1"><g transform="translate(45.943771, 225.877749)"><g><path d="M 27.96875 0 L 20.359375 0 C 20.160156 -1.070312 19.929688 -2.128906 19.671875 -3.171875 C 19.410156 -4.210938 19.144531 -5.269531 18.875 -6.34375 L 13.90625 -6.34375 C 13.0625 -6.34375 12.25 -6.34375 11.46875 -6.34375 C 10.6875 -6.34375 9.921875 -6.34375 9.171875 -6.34375 C 8.523438 -3.832031 7.953125 -1.71875 7.453125 0 L -0.03125 0 C 0.507812 -2.007812 1.128906 -4.25 1.828125 -6.71875 C 2.523438 -9.195312 3.238281 -11.734375 3.96875 -14.328125 C 4.707031 -16.929688 5.40625 -19.453125 6.0625 -21.890625 C 6.71875 -24.328125 7.28125 -26.515625 7.75 -28.453125 L 20.109375 -28.453125 C 20.597656 -26.535156 21.164062 -24.378906 21.8125 -21.984375 C 22.457031 -19.585938 23.144531 -17.101562 23.875 -14.53125 C 24.613281 -11.957031 25.332031 -9.425781 26.03125 -6.9375 C 26.726562 -4.445312 27.375 -2.132812 27.96875 0 Z M 10.21875 -10.375 L 17.75 -10.375 C 17.082031 -12.65625 16.414062 -14.957031 15.75 -17.28125 C 15.09375 -19.613281 14.519531 -21.957031 14.03125 -24.3125 L 13.71875 -24.3125 C 13.125 -21.976562 12.53125 -19.617188 11.9375 -17.234375 C 11.34375 -14.847656 10.769531 -12.5625 10.21875 -10.375 Z M 10.21875 -10.375 "/></g></g></g><g fill="#ffffff" fill-opacity="1"><g transform="translate(75.253444, 225.877749)"><g><path d="M 2.34375 0 C 2.375 -1.4375 2.40625 -2.976562 2.4375 -4.625 C 2.476562 -6.269531 2.507812 -7.914062 2.53125 -9.5625 C 2.5625 -11.21875 2.578125 -12.753906 2.578125 -14.171875 C 2.578125 -15.617188 2.5625 -17.179688 2.53125 -18.859375 C 2.507812 -20.535156 2.476562 -22.207031 2.4375 -23.875 C 2.40625 -25.539062 2.375 -27.066406 2.34375 -28.453125 L 15.40625 -28.453125 C 17.96875 -28.453125 20.125 -28.238281 21.875 -27.8125 C 23.625 -27.394531 24.953125 -26.632812 25.859375 -25.53125 C 26.773438 -24.425781 27.234375 -22.84375 27.234375 -20.78125 C 27.234375 -17.988281 26.484375 -16.007812 24.984375 -14.84375 C 23.492188 -13.675781 21.269531 -13.066406 18.3125 -13.015625 L 18.3125 -12.5 C 20.195312 -12.445312 21.722656 -12.207031 22.890625 -11.78125 C 24.066406 -11.363281 24.972656 -10.726562 25.609375 -9.875 C 26.242188 -9.03125 26.671875 -7.953125 26.890625 -6.640625 C 26.941406 -6.285156 27.03125 -5.8125 27.15625 -5.21875 C 27.28125 -4.625 27.421875 -3.992188 27.578125 -3.328125 C 27.742188 -2.671875 27.90625 -2.046875 28.0625 -1.453125 C 28.226562 -0.859375 28.375 -0.375 28.5 0 L 20.625 0 C 20.445312 -0.945312 20.234375 -2 19.984375 -3.15625 C 19.742188 -4.3125 19.570312 -5.410156 19.46875 -6.453125 C 19.25 -7.421875 18.96875 -8.175781 18.625 -8.71875 C 18.289062 -9.269531 17.816406 -9.660156 17.203125 -9.890625 C 16.597656 -10.128906 15.773438 -10.25 14.734375 -10.25 L 9.703125 -10.25 C 9.703125 -9.601562 9.703125 -8.804688 9.703125 -7.859375 C 9.703125 -6.921875 9.703125 -5.953125 9.703125 -4.953125 C 9.703125 -3.960938 9.703125 -3.023438 9.703125 -2.140625 C 9.703125 -1.265625 9.703125 -0.550781 9.703125 0 Z M 9.625 -14.921875 L 14.203125 -14.921875 C 16.097656 -14.921875 17.492188 -15.226562 18.390625 -15.84375 C 19.285156 -16.46875 19.734375 -17.566406 19.734375 -19.140625 C 19.734375 -20.847656 19.265625 -21.992188 18.328125 -22.578125 C 17.398438 -23.160156 16.023438 -23.453125 14.203125 -23.453125 L 9.625 -23.453125 Z M 9.625 -14.921875 "/></g></g></g><g fill="#ffffff" fill-opacity="1"><g transform="translate(106.427578, 225.877749)"><g><path d="M 14.578125 0.453125 C 10.472656 0.453125 7.320312 -0.226562 5.125 -1.59375 C 2.925781 -2.96875 1.640625 -5.347656 1.265625 -8.734375 L 9.171875 -9.359375 C 9.296875 -8.515625 9.535156 -7.722656 9.890625 -6.984375 C 10.253906 -6.253906 10.816406 -5.660156 11.578125 -5.203125 C 12.335938 -4.742188 13.375 -4.515625 14.6875 -4.515625 C 15.363281 -4.515625 16.0625 -4.578125 16.78125 -4.703125 C 17.5 -4.828125 18.0625 -5.050781 18.46875 -5.375 C 19.082031 -6.289062 19.390625 -7.320312 19.390625 -8.46875 C 19.390625 -9.207031 19.238281 -9.8125 18.9375 -10.28125 C 18.644531 -10.757812 18.113281 -11.132812 17.34375 -11.40625 C 16.570312 -11.6875 15.453125 -11.898438 13.984375 -12.046875 C 11.003906 -12.171875 8.632812 -12.59375 6.875 -13.3125 C 5.125 -14.03125 3.867188 -15 3.109375 -16.21875 C 2.359375 -17.4375 1.984375 -18.84375 1.984375 -20.4375 C 1.984375 -22.351562 2.507812 -23.9375 3.5625 -25.1875 C 4.613281 -26.445312 6.046875 -27.378906 7.859375 -27.984375 C 9.679688 -28.597656 11.75 -28.90625 14.0625 -28.90625 C 18.0625 -28.90625 21.039062 -28.070312 23 -26.40625 C 24.96875 -24.738281 26.164062 -22.238281 26.59375 -18.90625 L 19.3125 -18.390625 C 19.144531 -19.484375 18.90625 -20.425781 18.59375 -21.21875 C 18.28125 -22.019531 17.753906 -22.632812 17.015625 -23.0625 C 16.285156 -23.5 15.203125 -23.71875 13.765625 -23.71875 C 13.242188 -23.71875 12.664062 -23.671875 12.03125 -23.578125 C 11.394531 -23.492188 10.878906 -23.332031 10.484375 -23.09375 C 10.128906 -22.613281 9.835938 -22.097656 9.609375 -21.546875 C 9.390625 -21.003906 9.28125 -20.398438 9.28125 -19.734375 C 9.28125 -18.515625 9.664062 -17.648438 10.4375 -17.140625 C 11.207031 -16.628906 12.578125 -16.238281 14.546875 -15.96875 C 17.035156 -15.84375 19.066406 -15.570312 20.640625 -15.15625 C 22.222656 -14.75 23.441406 -14.210938 24.296875 -13.546875 C 25.148438 -12.890625 25.742188 -12.109375 26.078125 -11.203125 C 26.421875 -10.296875 26.59375 -9.269531 26.59375 -8.125 C 26.59375 -6.289062 26.078125 -4.734375 25.046875 -3.453125 C 24.015625 -2.171875 22.597656 -1.195312 20.796875 -0.53125 C 18.992188 0.125 16.921875 0.453125 14.578125 0.453125 Z M 14.578125 0.453125 "/></g></g></g><g fill="#ffffff" fill-opacity="1"><g transform="translate(135.774536, 225.877749)"><g><path d="M 2.34375 0 C 2.394531 -2.363281 2.429688 -4.769531 2.453125 -7.21875 C 2.484375 -9.664062 2.5 -11.992188 2.5 -14.203125 C 2.5 -16.441406 2.484375 -18.78125 2.453125 -21.21875 C 2.429688 -23.65625 2.394531 -26.066406 2.34375 -28.453125 L 9.8125 -28.453125 C 9.738281 -23.734375 9.703125 -19.269531 9.703125 -15.0625 C 9.703125 -13.476562 9.707031 -11.84375 9.71875 -10.15625 C 9.726562 -8.476562 9.742188 -6.984375 9.765625 -5.671875 C 11.679688 -5.671875 13.679688 -5.675781 15.765625 -5.6875 C 17.859375 -5.695312 19.8125 -5.71875 21.625 -5.75 L 21.109375 0 Z M 2.34375 0 "/></g></g></g><g fill="#ffffff" fill-opacity="1"><g transform="translate(158.707767, 225.877749)"><g><path d="M 27.96875 0 L 20.359375 0 C 20.160156 -1.070312 19.929688 -2.128906 19.671875 -3.171875 C 19.410156 -4.210938 19.144531 -5.269531 18.875 -6.34375 L 13.90625 -6.34375 C 13.0625 -6.34375 12.25 -6.34375 11.46875 -6.34375 C 10.6875 -6.34375 9.921875 -6.34375 9.171875 -6.34375 C 8.523438 -3.832031 7.953125 -1.71875 7.453125 0 L -0.03125 0 C 0.507812 -2.007812 1.128906 -4.25 1.828125 -6.71875 C 2.523438 -9.195312 3.238281 -11.734375 3.96875 -14.328125 C 4.707031 -16.929688 5.40625 -19.453125 6.0625 -21.890625 C 6.71875 -24.328125 7.28125 -26.515625 7.75 -28.453125 L 20.109375 -28.453125 C 20.597656 -26.535156 21.164062 -24.378906 21.8125 -21.984375 C 22.457031 -19.585938 23.144531 -17.101562 23.875 -14.53125 C 24.613281 -11.957031 25.332031 -9.425781 26.03125 -6.9375 C 26.726562 -4.445312 27.375 -2.132812 27.96875 0 Z M 10.21875 -10.375 L 17.75 -10.375 C 17.082031 -12.65625 16.414062 -14.957031 15.75 -17.28125 C 15.09375 -19.613281 14.519531 -21.957031 14.03125 -24.3125 L 13.71875 -24.3125 C 13.125 -21.976562 12.53125 -19.617188 11.9375 -17.234375 C 11.34375 -14.847656 10.769531 -12.5625 10.21875 -10.375 Z M 10.21875 -10.375 "/></g></g></g><g fill="#ffffff" fill-opacity="1"><g transform="translate(188.017447, 225.877749)"><g><path d="M 2.390625 0 C 2.410156 -1.4375 2.425781 -2.96875 2.4375 -4.59375 C 2.457031 -6.226562 2.472656 -8.046875 2.484375 -10.046875 C 2.492188 -12.046875 2.5 -14.328125 2.5 -16.890625 C 2.5 -18.679688 2.484375 -20.582031 2.453125 -22.59375 C 2.429688 -24.613281 2.394531 -26.566406 2.34375 -28.453125 L 12.3125 -28.453125 L 20.46875 -11.640625 C 20.820312 -10.742188 21.179688 -9.851562 21.546875 -8.96875 C 21.921875 -8.082031 22.195312 -7.332031 22.375 -6.71875 L 22.90625 -6.71875 C 22.800781 -7.488281 22.710938 -8.289062 22.640625 -9.125 C 22.566406 -9.957031 22.53125 -10.769531 22.53125 -11.5625 C 22.53125 -12.875 22.519531 -14.304688 22.5 -15.859375 C 22.488281 -17.421875 22.472656 -18.976562 22.453125 -20.53125 C 22.429688 -22.082031 22.410156 -23.546875 22.390625 -24.921875 C 22.378906 -26.304688 22.363281 -27.484375 22.34375 -28.453125 L 29.09375 -28.453125 C 29.019531 -23.804688 28.984375 -19.171875 28.984375 -14.546875 C 28.984375 -9.992188 29.019531 -5.144531 29.09375 0 L 19.171875 0 L 11.640625 -14.921875 C 11.015625 -16.429688 10.507812 -17.738281 10.125 -18.84375 C 9.738281 -19.957031 9.410156 -20.972656 9.140625 -21.890625 L 8.609375 -21.890625 C 8.640625 -21.671875 8.671875 -21.304688 8.703125 -20.796875 C 8.742188 -20.285156 8.785156 -19.726562 8.828125 -19.125 C 8.878906 -18.53125 8.914062 -17.976562 8.9375 -17.46875 C 8.96875 -16.957031 8.984375 -16.601562 8.984375 -16.40625 C 8.984375 -13.351562 8.988281 -10.46875 9 -7.75 C 9.019531 -5.039062 9.039062 -2.457031 9.0625 0 Z M 2.390625 0 "/></g></g></g><g fill="#ffffff" fill-opacity="1"><g transform="translate(220.832302, 225.877749)"><g/></g></g><g fill="#ffffff" fill-opacity="1"><g transform="translate(231.161807, 225.877749)"><g><path d="M 8.765625 0 L 8.765625 -9.625 L 8.3125 -9.625 C 7.195312 -9.625 6.378906 -9.863281 5.859375 -10.34375 C 5.335938 -10.832031 4.925781 -11.722656 4.625 -13.015625 L -0.03125 -28.453125 L 8.25 -28.453125 L 11.75 -14.515625 L 13.65625 -14.515625 L 17.15625 -28.453125 L 25.40625 -28.453125 L 20.65625 -12.984375 C 20.363281 -11.691406 19.960938 -10.804688 19.453125 -10.328125 C 18.941406 -9.859375 18.113281 -9.625 16.96875 -9.625 L 16.59375 -9.625 L 16.59375 0 Z M 8.765625 0 "/></g></g></g><g fill="#ffffff" fill-opacity="1"><g transform="translate(257.861238, 225.877749)"><g><path d="M 27.96875 0 L 20.359375 0 C 20.160156 -1.070312 19.929688 -2.128906 19.671875 -3.171875 C 19.410156 -4.210938 19.144531 -5.269531 18.875 -6.34375 L 13.90625 -6.34375 C 13.0625 -6.34375 12.25 -6.34375 11.46875 -6.34375 C 10.6875 -6.34375 9.921875 -6.34375 9.171875 -6.34375 C 8.523438 -3.832031 7.953125 -1.71875 7.453125 0 L -0.03125 0 C 0.507812 -2.007812 1.128906 -4.25 1.828125 -6.71875 C 2.523438 -9.195312 3.238281 -11.734375 3.96875 -14.328125 C 4.707031 -16.929688 5.40625 -19.453125 6.0625 -21.890625 C 6.71875 -24.328125 7.28125 -26.515625 7.75 -28.453125 L 20.109375 -28.453125 C 20.597656 -26.535156 21.164062 -24.378906 21.8125 -21.984375 C 22.457031 -19.585938 23.144531 -17.101562 23.875 -14.53125 C 24.613281 -11.957031 25.332031 -9.425781 26.03125 -6.9375 C 26.726562 -4.445312 27.375 -2.132812 27.96875 0 Z M 10.21875 -10.375 L 17.75 -10.375 C 17.082031 -12.65625 16.414062 -14.957031 15.75 -17.28125 C 15.09375 -19.613281 14.519531 -21.957031 14.03125 -24.3125 L 13.71875 -24.3125 C 13.125 -21.976562 12.53125 -19.617188 11.9375 -17.234375 C 11.34375 -14.847656 10.769531 -12.5625 10.21875 -10.375 Z M 10.21875 -10.375 "/></g></g></g><g fill="#ffffff" fill-opacity="1"><g transform="translate(287.170905, 225.877749)"><g><path d="M 2.34375 0 C 2.375 -2.238281 2.394531 -4.535156 2.40625 -6.890625 C 2.414062 -9.253906 2.421875 -11.691406 2.421875 -14.203125 C 2.421875 -16.722656 2.414062 -19.164062 2.40625 -21.53125 C 2.394531 -23.90625 2.375 -26.210938 2.34375 -28.453125 L 15.328125 -28.453125 C 17.835938 -28.453125 19.972656 -28.113281 21.734375 -27.4375 C 23.503906 -26.769531 24.847656 -25.695312 25.765625 -24.21875 C 26.691406 -22.738281 27.15625 -20.757812 27.15625 -18.28125 C 27.15625 -14.570312 26.273438 -11.890625 24.515625 -10.234375 C 22.765625 -8.578125 20.210938 -7.75 16.859375 -7.75 L 9.625 -7.75 C 9.625 -6.9375 9.628906 -6.023438 9.640625 -5.015625 C 9.648438 -4.003906 9.660156 -3.046875 9.671875 -2.140625 C 9.691406 -1.234375 9.710938 -0.519531 9.734375 0 Z M 9.578125 -12.3125 L 14.25 -12.3125 C 15.882812 -12.3125 17.210938 -12.710938 18.234375 -13.515625 C 19.253906 -14.328125 19.765625 -15.789062 19.765625 -17.90625 C 19.765625 -19.988281 19.273438 -21.429688 18.296875 -22.234375 C 17.316406 -23.046875 15.941406 -23.453125 14.171875 -23.453125 L 9.625 -23.453125 Z M 9.578125 -12.3125 "/></g></g></g><g fill="#ffffff" fill-opacity="1"><g transform="translate(317.002629, 225.877749)"><g><path d="M 2.34375 0 C 2.425781 -2.363281 2.472656 -4.734375 2.484375 -7.109375 C 2.492188 -9.484375 2.5 -11.847656 2.5 -14.203125 C 2.5 -16.597656 2.492188 -18.972656 2.484375 -21.328125 C 2.472656 -23.691406 2.425781 -26.066406 2.34375 -28.453125 L 9.703125 -28.453125 C 9.617188 -26.097656 9.570312 -23.734375 9.5625 -21.359375 C 9.550781 -18.984375 9.546875 -16.613281 9.546875 -14.25 C 9.546875 -11.863281 9.550781 -9.484375 9.5625 -7.109375 C 9.570312 -4.734375 9.617188 -2.363281 9.703125 0 Z M 2.34375 0 "/></g></g></g><g fill="#ffffff" fill-opacity="1"><g transform="translate(97.171351, 248.861449)"><g><path d="M 1.9375 -2.875 L 1.9375 -0.453125 C 1.9375 -0.304688 1.882812 -0.191406 1.78125 -0.109375 C 1.675781 -0.0351562 1.566406 0 1.453125 0 C 1.335938 0 1.226562 -0.0351562 1.125 -0.109375 C 1.03125 -0.191406 0.984375 -0.300781 0.984375 -0.4375 L 0.984375 -7.78125 C 0.984375 -7.914062 1.023438 -8.023438 1.109375 -8.109375 C 1.203125 -8.191406 1.320312 -8.234375 1.46875 -8.234375 L 4.53125 -8.234375 C 5.28125 -8.234375 5.90625 -8.101562 6.40625 -7.84375 C 6.90625 -7.59375 7.28125 -7.257812 7.53125 -6.84375 C 7.789062 -6.425781 7.921875 -5.960938 7.921875 -5.453125 C 7.921875 -4.796875 7.734375 -4.242188 7.359375 -3.796875 C 6.984375 -3.359375 6.398438 -3.066406 5.609375 -2.921875 L 7.59375 -0.796875 C 7.707031 -0.671875 7.757812 -0.546875 7.75 -0.421875 C 7.738281 -0.304688 7.6875 -0.207031 7.59375 -0.125 C 7.507812 -0.0390625 7.410156 0 7.296875 0 C 7.160156 0 7.039062 -0.0546875 6.9375 -0.171875 L 4.4375 -2.875 Z M 1.9375 -3.6875 L 4.546875 -3.6875 C 5.378906 -3.6875 5.988281 -3.851562 6.375 -4.1875 C 6.757812 -4.519531 6.953125 -4.925781 6.953125 -5.40625 C 6.941406 -5.96875 6.722656 -6.4375 6.296875 -6.8125 C 5.878906 -7.1875 5.296875 -7.375 4.546875 -7.375 L 1.9375 -7.375 Z M 1.9375 -3.6875 "/></g></g></g><g fill="#ffffff" fill-opacity="1"><g transform="translate(106.024775, 248.861449)"><g><path d="M 1.921875 -0.859375 L 7.03125 -0.859375 C 7.164062 -0.859375 7.269531 -0.8125 7.34375 -0.71875 C 7.425781 -0.632812 7.46875 -0.535156 7.46875 -0.421875 C 7.46875 -0.316406 7.429688 -0.21875 7.359375 -0.125 C 7.296875 -0.0390625 7.1875 0 7.03125 0 L 1.578125 0 C 1.398438 0 1.253906 -0.0546875 1.140625 -0.171875 C 1.035156 -0.285156 0.984375 -0.414062 0.984375 -0.5625 L 0.984375 -7.6875 C 0.984375 -7.832031 1.035156 -7.957031 1.140625 -8.0625 C 1.253906 -8.175781 1.398438 -8.234375 1.578125 -8.234375 L 7.046875 -8.234375 C 7.179688 -8.234375 7.285156 -8.191406 7.359375 -8.109375 C 7.429688 -8.023438 7.460938 -7.925781 7.453125 -7.8125 C 7.453125 -7.707031 7.414062 -7.613281 7.34375 -7.53125 C 7.269531 -7.445312 7.164062 -7.40625 7.03125 -7.40625 L 1.921875 -7.40625 L 1.921875 -4.5 L 6.78125 -4.5 C 6.914062 -4.5 7.015625 -4.457031 7.078125 -4.375 C 7.148438 -4.289062 7.1875 -4.191406 7.1875 -4.078125 C 7.1875 -3.960938 7.15625 -3.863281 7.09375 -3.78125 C 7.03125 -3.707031 6.925781 -3.671875 6.78125 -3.671875 L 1.921875 -3.671875 Z M 1.921875 -0.859375 "/></g></g></g><g fill="#ffffff" fill-opacity="1"><g transform="translate(114.645217, 248.861449)"><g><path d="M 0.28125 -1.8125 C 0.25 -1.957031 0.269531 -2.078125 0.34375 -2.171875 C 0.425781 -2.265625 0.535156 -2.320312 0.671875 -2.34375 C 0.804688 -2.375 0.925781 -2.363281 1.03125 -2.3125 C 1.144531 -2.257812 1.21875 -2.171875 1.25 -2.046875 C 1.332031 -1.773438 1.472656 -1.554688 1.671875 -1.390625 C 1.878906 -1.234375 2.117188 -1.109375 2.390625 -1.015625 C 2.660156 -0.929688 2.941406 -0.875 3.234375 -0.84375 C 3.523438 -0.8125 3.796875 -0.796875 4.046875 -0.796875 C 4.328125 -0.796875 4.628906 -0.816406 4.953125 -0.859375 C 5.273438 -0.910156 5.582031 -0.988281 5.875 -1.09375 C 6.164062 -1.207031 6.398438 -1.367188 6.578125 -1.578125 C 6.765625 -1.785156 6.859375 -2.054688 6.859375 -2.390625 C 6.859375 -2.671875 6.78125 -2.890625 6.625 -3.046875 C 6.476562 -3.210938 6.269531 -3.335938 6 -3.421875 C 5.738281 -3.515625 5.441406 -3.578125 5.109375 -3.609375 C 4.773438 -3.648438 4.429688 -3.6875 4.078125 -3.71875 C 3.628906 -3.75 3.1875 -3.796875 2.75 -3.859375 C 2.3125 -3.921875 1.910156 -4.019531 1.546875 -4.15625 C 1.191406 -4.300781 0.90625 -4.515625 0.6875 -4.796875 C 0.476562 -5.085938 0.375 -5.472656 0.375 -5.953125 C 0.375 -6.390625 0.476562 -6.757812 0.6875 -7.0625 C 0.90625 -7.363281 1.191406 -7.609375 1.546875 -7.796875 C 1.898438 -7.992188 2.285156 -8.140625 2.703125 -8.234375 C 3.117188 -8.328125 3.523438 -8.375 3.921875 -8.375 C 4.265625 -8.375 4.617188 -8.347656 4.984375 -8.296875 C 5.347656 -8.253906 5.695312 -8.171875 6.03125 -8.046875 C 6.375 -7.929688 6.671875 -7.757812 6.921875 -7.53125 C 7.179688 -7.300781 7.382812 -7 7.53125 -6.625 C 7.582031 -6.5 7.570312 -6.390625 7.5 -6.296875 C 7.4375 -6.210938 7.347656 -6.148438 7.234375 -6.109375 C 7.117188 -6.078125 7.003906 -6.078125 6.890625 -6.109375 C 6.773438 -6.140625 6.691406 -6.210938 6.640625 -6.328125 C 6.515625 -6.648438 6.296875 -6.890625 5.984375 -7.046875 C 5.671875 -7.203125 5.328125 -7.300781 4.953125 -7.34375 C 4.585938 -7.382812 4.25 -7.40625 3.9375 -7.40625 C 3.71875 -7.40625 3.460938 -7.382812 3.171875 -7.34375 C 2.890625 -7.300781 2.613281 -7.222656 2.34375 -7.109375 C 2.070312 -7.003906 1.84375 -6.859375 1.65625 -6.671875 C 1.476562 -6.484375 1.390625 -6.242188 1.390625 -5.953125 C 1.390625 -5.578125 1.515625 -5.296875 1.765625 -5.109375 C 2.023438 -4.929688 2.367188 -4.8125 2.796875 -4.75 C 3.222656 -4.6875 3.6875 -4.628906 4.1875 -4.578125 C 4.625 -4.546875 5.0625 -4.5 5.5 -4.4375 C 5.9375 -4.382812 6.332031 -4.289062 6.6875 -4.15625 C 7.050781 -4.03125 7.335938 -3.828125 7.546875 -3.546875 C 7.753906 -3.265625 7.859375 -2.878906 7.859375 -2.390625 C 7.859375 -1.898438 7.738281 -1.488281 7.5 -1.15625 C 7.257812 -0.832031 6.941406 -0.578125 6.546875 -0.390625 C 6.160156 -0.203125 5.75 -0.0703125 5.3125 0 C 4.875 0.0820312 4.453125 0.125 4.046875 0.125 C 3.722656 0.125 3.363281 0.0976562 2.96875 0.046875 C 2.582031 -0.00390625 2.203125 -0.101562 1.828125 -0.25 C 1.460938 -0.40625 1.140625 -0.609375 0.859375 -0.859375 C 0.578125 -1.109375 0.382812 -1.425781 0.28125 -1.8125 Z M 0.28125 -1.8125 "/></g></g></g><g fill="#ffffff" fill-opacity="1"><g transform="translate(123.356261, 248.861449)"><g><path d="M 7.015625 -8.234375 C 7.171875 -8.234375 7.289062 -8.1875 7.375 -8.09375 C 7.457031 -8.007812 7.5 -7.90625 7.5 -7.78125 C 7.5 -7.664062 7.457031 -7.5625 7.375 -7.46875 C 7.289062 -7.382812 7.171875 -7.34375 7.015625 -7.34375 L 4.125 -7.34375 L 4.140625 -0.484375 C 4.140625 -0.316406 4.085938 -0.191406 3.984375 -0.109375 C 3.878906 -0.0351562 3.769531 0 3.65625 0 C 3.539062 0 3.429688 -0.0351562 3.328125 -0.109375 C 3.234375 -0.191406 3.1875 -0.316406 3.1875 -0.484375 L 3.1875 -7.34375 L 0.3125 -7.34375 C 0.15625 -7.34375 0.0390625 -7.382812 -0.03125 -7.46875 C -0.101562 -7.5625 -0.140625 -7.664062 -0.140625 -7.78125 C -0.140625 -7.90625 -0.101562 -8.007812 -0.03125 -8.09375 C 0.0390625 -8.1875 0.15625 -8.234375 0.3125 -8.234375 Z M 7.015625 -8.234375 "/></g></g></g><g fill="#ffffff" fill-opacity="1"><g transform="translate(131.329531, 248.861449)"><g><path d="M 4.671875 0.125 C 3.898438 0.125 3.195312 -0.046875 2.5625 -0.390625 C 1.925781 -0.742188 1.421875 -1.25 1.046875 -1.90625 C 0.671875 -2.5625 0.484375 -3.347656 0.484375 -4.265625 C 0.484375 -4.984375 0.609375 -5.601562 0.859375 -6.125 C 1.117188 -6.644531 1.457031 -7.070312 1.875 -7.40625 C 2.300781 -7.738281 2.75 -7.984375 3.21875 -8.140625 C 3.695312 -8.296875 4.148438 -8.375 4.578125 -8.375 C 5.003906 -8.375 5.460938 -8.296875 5.953125 -8.140625 C 6.453125 -7.984375 6.914062 -7.738281 7.34375 -7.40625 C 7.78125 -7.082031 8.132812 -6.65625 8.40625 -6.125 C 8.6875 -5.601562 8.828125 -4.984375 8.828125 -4.265625 C 8.828125 -3.585938 8.710938 -2.976562 8.484375 -2.4375 C 8.253906 -1.894531 7.945312 -1.429688 7.5625 -1.046875 C 7.1875 -0.671875 6.75 -0.378906 6.25 -0.171875 C 5.75 0.0234375 5.222656 0.125 4.671875 0.125 Z M 1.453125 -4.21875 C 1.453125 -3.507812 1.59375 -2.894531 1.875 -2.375 C 2.164062 -1.863281 2.550781 -1.460938 3.03125 -1.171875 C 3.519531 -0.890625 4.066406 -0.75 4.671875 -0.75 C 5.265625 -0.75 5.800781 -0.882812 6.28125 -1.15625 C 6.757812 -1.4375 7.140625 -1.835938 7.421875 -2.359375 C 7.710938 -2.878906 7.859375 -3.5 7.859375 -4.21875 C 7.859375 -4.8125 7.753906 -5.316406 7.546875 -5.734375 C 7.335938 -6.148438 7.066406 -6.488281 6.734375 -6.75 C 6.398438 -7.007812 6.046875 -7.195312 5.671875 -7.3125 C 5.296875 -7.4375 4.9375 -7.5 4.59375 -7.5 C 4.269531 -7.5 3.921875 -7.441406 3.546875 -7.328125 C 3.179688 -7.210938 2.835938 -7.023438 2.515625 -6.765625 C 2.203125 -6.515625 1.945312 -6.179688 1.75 -5.765625 C 1.550781 -5.347656 1.453125 -4.832031 1.453125 -4.21875 Z M 1.453125 -4.21875 "/></g></g></g><g fill="#ffffff" fill-opacity="1"><g transform="translate(141.321971, 248.861449)"><g><path d="M 1.9375 -2.875 L 1.9375 -0.453125 C 1.9375 -0.304688 1.882812 -0.191406 1.78125 -0.109375 C 1.675781 -0.0351562 1.566406 0 1.453125 0 C 1.335938 0 1.226562 -0.0351562 1.125 -0.109375 C 1.03125 -0.191406 0.984375 -0.300781 0.984375 -0.4375 L 0.984375 -7.78125 C 0.984375 -7.914062 1.023438 -8.023438 1.109375 -8.109375 C 1.203125 -8.191406 1.320312 -8.234375 1.46875 -8.234375 L 4.53125 -8.234375 C 5.28125 -8.234375 5.90625 -8.101562 6.40625 -7.84375 C 6.90625 -7.59375 7.28125 -7.257812 7.53125 -6.84375 C 7.789062 -6.425781 7.921875 -5.960938 7.921875 -5.453125 C 7.921875 -4.796875 7.734375 -4.242188 7.359375 -3.796875 C 6.984375 -3.359375 6.398438 -3.066406 5.609375 -2.921875 L 7.59375 -0.796875 C 7.707031 -0.671875 7.757812 -0.546875 7.75 -0.421875 C 7.738281 -0.304688 7.6875 -0.207031 7.59375 -0.125 C 7.507812 -0.0390625 7.410156 0 7.296875 0 C 7.160156 0 7.039062 -0.0546875 6.9375 -0.171875 L 4.4375 -2.875 Z M 1.9375 -3.6875 L 4.546875 -3.6875 C 5.378906 -3.6875 5.988281 -3.851562 6.375 -4.1875 C 6.757812 -4.519531 6.953125 -4.925781 6.953125 -5.40625 C 6.941406 -5.96875 6.722656 -6.4375 6.296875 -6.8125 C 5.878906 -7.1875 5.296875 -7.375 4.546875 -7.375 L 1.9375 -7.375 Z M 1.9375 -3.6875 "/></g></g></g><g fill="#ffffff" fill-opacity="1"><g transform="translate(150.175398, 248.861449)"><g><path d="M 4.359375 -8.375 C 4.554688 -8.375 4.695312 -8.289062 4.78125 -8.125 L 8.59375 -0.625 C 8.695312 -0.4375 8.691406 -0.285156 8.578125 -0.171875 C 8.460938 -0.0546875 8.320312 0 8.15625 0 C 8.070312 0 7.988281 -0.015625 7.90625 -0.046875 C 7.832031 -0.0859375 7.773438 -0.15625 7.734375 -0.25 L 6.796875 -2.078125 L 1.9375 -2.078125 L 0.96875 -0.234375 C 0.882812 -0.078125 0.753906 0 0.578125 0 C 0.429688 0 0.296875 -0.0546875 0.171875 -0.171875 C 0.0546875 -0.296875 0.0351562 -0.441406 0.109375 -0.609375 L 3.9375 -8.125 C 3.976562 -8.207031 4.035156 -8.269531 4.109375 -8.3125 C 4.191406 -8.351562 4.273438 -8.375 4.359375 -8.375 Z M 4.359375 -6.984375 L 2.3125 -2.90625 L 6.40625 -2.90625 Z M 4.359375 -6.984375 "/></g></g></g><g fill="#ffffff" fill-opacity="1"><g transform="translate(159.546559, 248.861449)"><g><path d="M 0.28125 -1.8125 C 0.25 -1.957031 0.269531 -2.078125 0.34375 -2.171875 C 0.425781 -2.265625 0.535156 -2.320312 0.671875 -2.34375 C 0.804688 -2.375 0.925781 -2.363281 1.03125 -2.3125 C 1.144531 -2.257812 1.21875 -2.171875 1.25 -2.046875 C 1.332031 -1.773438 1.472656 -1.554688 1.671875 -1.390625 C 1.878906 -1.234375 2.117188 -1.109375 2.390625 -1.015625 C 2.660156 -0.929688 2.941406 -0.875 3.234375 -0.84375 C 3.523438 -0.8125 3.796875 -0.796875 4.046875 -0.796875 C 4.328125 -0.796875 4.628906 -0.816406 4.953125 -0.859375 C 5.273438 -0.910156 5.582031 -0.988281 5.875 -1.09375 C 6.164062 -1.207031 6.398438 -1.367188 6.578125 -1.578125 C 6.765625 -1.785156 6.859375 -2.054688 6.859375 -2.390625 C 6.859375 -2.671875 6.78125 -2.890625 6.625 -3.046875 C 6.476562 -3.210938 6.269531 -3.335938 6 -3.421875 C 5.738281 -3.515625 5.441406 -3.578125 5.109375 -3.609375 C 4.773438 -3.648438 4.429688 -3.6875 4.078125 -3.71875 C 3.628906 -3.75 3.1875 -3.796875 2.75 -3.859375 C 2.3125 -3.921875 1.910156 -4.019531 1.546875 -4.15625 C 1.191406 -4.300781 0.90625 -4.515625 0.6875 -4.796875 C 0.476562 -5.085938 0.375 -5.472656 0.375 -5.953125 C 0.375 -6.390625 0.476562 -6.757812 0.6875 -7.0625 C 0.90625 -7.363281 1.191406 -7.609375 1.546875 -7.796875 C 1.898438 -7.992188 2.285156 -8.140625 2.703125 -8.234375 C 3.117188 -8.328125 3.523438 -8.375 3.921875 -8.375 C 4.265625 -8.375 4.617188 -8.347656 4.984375 -8.296875 C 5.347656 -8.253906 5.695312 -8.171875 6.03125 -8.046875 C 6.375 -7.929688 6.671875 -7.757812 6.921875 -7.53125 C 7.179688 -7.300781 7.382812 -7 7.53125 -6.625 C 7.582031 -6.5 7.570312 -6.390625 7.5 -6.296875 C 7.4375 -6.210938 7.347656 -6.148438 7.234375 -6.109375 C 7.117188 -6.078125 7.003906 -6.078125 6.890625 -6.109375 C 6.773438 -6.140625 6.691406 -6.210938 6.640625 -6.328125 C 6.515625 -6.648438 6.296875 -6.890625 5.984375 -7.046875 C 5.671875 -7.203125 5.328125 -7.300781 4.953125 -7.34375 C 4.585938 -7.382812 4.25 -7.40625 3.9375 -7.40625 C 3.71875 -7.40625 3.460938 -7.382812 3.171875 -7.34375 C 2.890625 -7.300781 2.613281 -7.222656 2.34375 -7.109375 C 2.070312 -7.003906 1.84375 -6.859375 1.65625 -6.671875 C 1.476562 -6.484375 1.390625 -6.242188 1.390625 -5.953125 C 1.390625 -5.578125 1.515625 -5.296875 1.765625 -5.109375 C 2.023438 -4.929688 2.367188 -4.8125 2.796875 -4.75 C 3.222656 -4.6875 3.6875 -4.628906 4.1875 -4.578125 C 4.625 -4.546875 5.0625 -4.5 5.5 -4.4375 C 5.9375 -4.382812 6.332031 -4.289062 6.6875 -4.15625 C 7.050781 -4.03125 7.335938 -3.828125 7.546875 -3.546875 C 7.753906 -3.265625 7.859375 -2.878906 7.859375 -2.390625 C 7.859375 -1.898438 7.738281 -1.488281 7.5 -1.15625 C 7.257812 -0.832031 6.941406 -0.578125 6.546875 -0.390625 C 6.160156 -0.203125 5.75 -0.0703125 5.3125 0 C 4.875 0.0820312 4.453125 0.125 4.046875 0.125 C 3.722656 0.125 3.363281 0.0976562 2.96875 0.046875 C 2.582031 -0.00390625 2.203125 -0.101562 1.828125 -0.25 C 1.460938 -0.40625 1.140625 -0.609375 0.859375 -0.859375 C 0.578125 -1.109375 0.382812 -1.425781 0.28125 -1.8125 Z M 0.28125 -1.8125 "/></g></g></g><g fill="#ffffff" fill-opacity="1"><g transform="translate(168.257605, 248.861449)"><g><path d="M 3.390625 -3.328125 L 0.203125 -7.53125 C 0.0664062 -7.71875 0.0546875 -7.878906 0.171875 -8.015625 C 0.296875 -8.160156 0.441406 -8.234375 0.609375 -8.234375 C 0.785156 -8.234375 0.921875 -8.160156 1.015625 -8.015625 L 3.859375 -4.140625 L 6.71875 -8.015625 C 6.8125 -8.160156 6.945312 -8.234375 7.125 -8.234375 C 7.28125 -8.234375 7.410156 -8.164062 7.515625 -8.03125 C 7.628906 -7.90625 7.625 -7.742188 7.5 -7.546875 L 4.359375 -3.328125 L 4.359375 -0.484375 C 4.359375 -0.316406 4.304688 -0.191406 4.203125 -0.109375 C 4.097656 -0.0351562 3.988281 0 3.875 0 C 3.738281 0 3.625 -0.0351562 3.53125 -0.109375 C 3.4375 -0.191406 3.390625 -0.316406 3.390625 -0.484375 Z M 3.390625 -3.328125 "/></g></g></g><g fill="#ffffff" fill-opacity="1"><g transform="translate(176.593297, 248.861449)"><g><path d="M 4.671875 0.125 C 3.898438 0.125 3.195312 -0.046875 2.5625 -0.390625 C 1.925781 -0.742188 1.421875 -1.25 1.046875 -1.90625 C 0.671875 -2.5625 0.484375 -3.347656 0.484375 -4.265625 C 0.484375 -4.984375 0.609375 -5.601562 0.859375 -6.125 C 1.117188 -6.644531 1.457031 -7.070312 1.875 -7.40625 C 2.300781 -7.738281 2.75 -7.984375 3.21875 -8.140625 C 3.695312 -8.296875 4.148438 -8.375 4.578125 -8.375 C 5.003906 -8.375 5.460938 -8.296875 5.953125 -8.140625 C 6.453125 -7.984375 6.914062 -7.738281 7.34375 -7.40625 C 7.78125 -7.082031 8.132812 -6.65625 8.40625 -6.125 C 8.6875 -5.601562 8.828125 -4.984375 8.828125 -4.265625 C 8.828125 -3.585938 8.710938 -2.976562 8.484375 -2.4375 C 8.253906 -1.894531 7.945312 -1.429688 7.5625 -1.046875 C 7.1875 -0.671875 6.75 -0.378906 6.25 -0.171875 C 5.75 0.0234375 5.222656 0.125 4.671875 0.125 Z M 1.453125 -4.21875 C 1.453125 -3.507812 1.59375 -2.894531 1.875 -2.375 C 2.164062 -1.863281 2.550781 -1.460938 3.03125 -1.171875 C 3.519531 -0.890625 4.066406 -0.75 4.671875 -0.75 C 5.265625 -0.75 5.800781 -0.882812 6.28125 -1.15625 C 6.757812 -1.4375 7.140625 -1.835938 7.421875 -2.359375 C 7.710938 -2.878906 7.859375 -3.5 7.859375 -4.21875 C 7.859375 -4.8125 7.753906 -5.316406 7.546875 -5.734375 C 7.335938 -6.148438 7.066406 -6.488281 6.734375 -6.75 C 6.398438 -7.007812 6.046875 -7.195312 5.671875 -7.3125 C 5.296875 -7.4375 4.9375 -7.5 4.59375 -7.5 C 4.269531 -7.5 3.921875 -7.441406 3.546875 -7.328125 C 3.179688 -7.210938 2.835938 -7.023438 2.515625 -6.765625 C 2.203125 -6.515625 1.945312 -6.179688 1.75 -5.765625 C 1.550781 -5.347656 1.453125 -4.832031 1.453125 -4.21875 Z M 1.453125 -4.21875 "/></g></g></g><g fill="#ffffff" fill-opacity="1"><g transform="translate(186.58574, 248.861449)"><g><path d="M 6.828125 -7.828125 C 6.828125 -7.960938 6.878906 -8.0625 6.984375 -8.125 C 7.085938 -8.195312 7.203125 -8.234375 7.328125 -8.234375 C 7.453125 -8.234375 7.5625 -8.203125 7.65625 -8.140625 C 7.757812 -8.078125 7.8125 -7.972656 7.8125 -7.828125 L 7.8125 -0.5625 C 7.8125 -0.363281 7.75 -0.21875 7.625 -0.125 C 7.5 -0.0390625 7.363281 0 7.21875 0 C 7.101562 0 6.992188 -0.0234375 6.890625 -0.078125 C 6.785156 -0.128906 6.703125 -0.203125 6.640625 -0.296875 L 1.796875 -6.71875 L 1.90625 -4.9375 L 1.90625 -0.484375 C 1.90625 -0.316406 1.851562 -0.191406 1.75 -0.109375 C 1.644531 -0.0351562 1.53125 0 1.40625 0 C 1.289062 0 1.179688 -0.0351562 1.078125 -0.109375 C 0.972656 -0.191406 0.921875 -0.316406 0.921875 -0.484375 L 0.921875 -7.671875 C 0.921875 -7.859375 0.972656 -8 1.078125 -8.09375 C 1.179688 -8.1875 1.300781 -8.234375 1.4375 -8.234375 C 1.664062 -8.234375 1.84375 -8.132812 1.96875 -7.9375 L 6.953125 -1.390625 L 6.828125 -3.34375 Z M 6.828125 -7.828125 "/></g></g></g><g fill="#ffffff" fill-opacity="1"><g transform="translate(195.879244, 248.861449)"><g><path d="M 0.71875 1.015625 C 0.65625 1.148438 0.566406 1.234375 0.453125 1.265625 C 0.347656 1.304688 0.242188 1.300781 0.140625 1.25 C 0.046875 1.195312 -0.0195312 1.117188 -0.0625 1.015625 C -0.113281 0.910156 -0.109375 0.789062 -0.046875 0.65625 L 0.484375 -0.578125 C 0.546875 -0.722656 0.628906 -0.804688 0.734375 -0.828125 C 0.847656 -0.859375 0.953125 -0.847656 1.046875 -0.796875 C 1.148438 -0.742188 1.222656 -0.664062 1.265625 -0.5625 C 1.304688 -0.457031 1.296875 -0.335938 1.234375 -0.203125 Z M 0.71875 1.015625 "/></g></g></g><g fill="#ffffff" fill-opacity="1"><g transform="translate(198.028008, 248.861449)"><g/></g></g><g fill="#ffffff" fill-opacity="1"><g transform="translate(201.911182, 248.861449)"><g><path d="M 7.015625 -8.234375 C 7.171875 -8.234375 7.289062 -8.1875 7.375 -8.09375 C 7.457031 -8.007812 7.5 -7.90625 7.5 -7.78125 C 7.5 -7.664062 7.457031 -7.5625 7.375 -7.46875 C 7.289062 -7.382812 7.171875 -7.34375 7.015625 -7.34375 L 4.125 -7.34375 L 4.140625 -0.484375 C 4.140625 -0.316406 4.085938 -0.191406 3.984375 -0.109375 C 3.878906 -0.0351562 3.769531 0 3.65625 0 C 3.539062 0 3.429688 -0.0351562 3.328125 -0.109375 C 3.234375 -0.191406 3.1875 -0.316406 3.1875 -0.484375 L 3.1875 -7.34375 L 0.3125 -7.34375 C 0.15625 -7.34375 0.0390625 -7.382812 -0.03125 -7.46875 C -0.101562 -7.5625 -0.140625 -7.664062 -0.140625 -7.78125 C -0.140625 -7.90625 -0.101562 -8.007812 -0.03125 -8.09375 C 0.0390625 -8.1875 0.15625 -8.234375 0.3125 -8.234375 Z M 7.015625 -8.234375 "/></g></g></g><g fill="#ffffff" fill-opacity="1"><g transform="translate(209.884454, 248.861449)"><g><path d="M 4.359375 -8.375 C 4.554688 -8.375 4.695312 -8.289062 4.78125 -8.125 L 8.59375 -0.625 C 8.695312 -0.4375 8.691406 -0.285156 8.578125 -0.171875 C 8.460938 -0.0546875 8.320312 0 8.15625 0 C 8.070312 0 7.988281 -0.015625 7.90625 -0.046875 C 7.832031 -0.0859375 7.773438 -0.15625 7.734375 -0.25 L 6.796875 -2.078125 L 1.9375 -2.078125 L 0.96875 -0.234375 C 0.882812 -0.078125 0.753906 0 0.578125 0 C 0.429688 0 0.296875 -0.0546875 0.171875 -0.171875 C 0.0546875 -0.296875 0.0351562 -0.441406 0.109375 -0.609375 L 3.9375 -8.125 C 3.976562 -8.207031 4.035156 -8.269531 4.109375 -8.3125 C 4.191406 -8.351562 4.273438 -8.375 4.359375 -8.375 Z M 4.359375 -6.984375 L 2.3125 -2.90625 L 6.40625 -2.90625 Z M 4.359375 -6.984375 "/></g></g></g><g fill="#ffffff" fill-opacity="1"><g transform="translate(219.255615, 248.861449)"><g><path d="M 1.09375 0 C 0.9375 0 0.796875 -0.0546875 0.671875 -0.171875 C 0.554688 -0.285156 0.5 -0.414062 0.5 -0.5625 L 0.5 -7.6875 C 0.5 -7.84375 0.554688 -7.972656 0.671875 -8.078125 C 0.796875 -8.179688 0.9375 -8.234375 1.09375 -8.234375 L 3.921875 -8.234375 C 4.566406 -8.234375 5.128906 -8.113281 5.609375 -7.875 C 6.085938 -7.644531 6.488281 -7.332031 6.8125 -6.9375 C 7.144531 -6.550781 7.390625 -6.113281 7.546875 -5.625 C 7.703125 -5.132812 7.78125 -4.632812 7.78125 -4.125 C 7.78125 -3.601562 7.703125 -3.097656 7.546875 -2.609375 C 7.390625 -2.117188 7.144531 -1.675781 6.8125 -1.28125 C 6.488281 -0.894531 6.085938 -0.582031 5.609375 -0.34375 C 5.128906 -0.113281 4.566406 0 3.921875 0 Z M 1.4375 -0.84375 L 3.921875 -0.84375 C 4.410156 -0.84375 4.835938 -0.9375 5.203125 -1.125 C 5.566406 -1.3125 5.867188 -1.5625 6.109375 -1.875 C 6.347656 -2.1875 6.53125 -2.535156 6.65625 -2.921875 C 6.78125 -3.316406 6.84375 -3.71875 6.84375 -4.125 C 6.84375 -4.53125 6.78125 -4.925781 6.65625 -5.3125 C 6.53125 -5.707031 6.347656 -6.0625 6.109375 -6.375 C 5.867188 -6.695312 5.566406 -6.945312 5.203125 -7.125 C 4.835938 -7.3125 4.410156 -7.40625 3.921875 -7.40625 L 1.4375 -7.40625 Z M 1.4375 -0.84375 "/></g></g></g><g fill="#ffffff" fill-opacity="1"><g transform="translate(228.109042, 248.861449)"><g><path d="M 1.375 -10.5625 C 1.53125 -10.5625 1.675781 -10.5 1.8125 -10.375 C 1.945312 -10.257812 2.015625 -10.113281 2.015625 -9.9375 C 2.015625 -9.71875 1.945312 -9.554688 1.8125 -9.453125 C 1.675781 -9.347656 1.53125 -9.296875 1.375 -9.296875 C 1.207031 -9.296875 1.054688 -9.351562 0.921875 -9.46875 C 0.785156 -9.59375 0.71875 -9.75 0.71875 -9.9375 C 0.71875 -10.113281 0.785156 -10.257812 0.921875 -10.375 C 1.054688 -10.5 1.207031 -10.5625 1.375 -10.5625 Z M 0.890625 -7.765625 C 0.890625 -7.921875 0.941406 -8.035156 1.046875 -8.109375 C 1.148438 -8.191406 1.257812 -8.234375 1.375 -8.234375 C 1.488281 -8.234375 1.597656 -8.191406 1.703125 -8.109375 C 1.804688 -8.035156 1.859375 -7.921875 1.859375 -7.765625 L 1.859375 -0.453125 C 1.859375 -0.304688 1.804688 -0.191406 1.703125 -0.109375 C 1.597656 -0.0351562 1.488281 0 1.375 0 C 1.25 0 1.132812 -0.0351562 1.03125 -0.109375 C 0.9375 -0.179688 0.890625 -0.296875 0.890625 -0.453125 Z M 0.890625 -7.765625 "/></g></g></g><g fill="#ffffff" fill-opacity="1"><g transform="translate(231.306221, 248.861449)"><g><path d="M 1.484375 0 C 1.148438 0 0.984375 -0.160156 0.984375 -0.484375 L 0.984375 -7.78125 C 0.984375 -7.9375 1.035156 -8.050781 1.140625 -8.125 C 1.242188 -8.195312 1.351562 -8.234375 1.46875 -8.234375 C 1.582031 -8.234375 1.6875 -8.195312 1.78125 -8.125 C 1.882812 -8.050781 1.9375 -7.9375 1.9375 -7.78125 L 1.9375 -0.859375 L 6.78125 -0.859375 C 6.945312 -0.859375 7.070312 -0.8125 7.15625 -0.71875 C 7.238281 -0.632812 7.28125 -0.535156 7.28125 -0.421875 C 7.28125 -0.316406 7.238281 -0.21875 7.15625 -0.125 C 7.070312 -0.0390625 6.945312 0 6.78125 0 Z M 1.484375 0 "/></g></g></g><g fill="#ffffff" fill-opacity="1"><g transform="translate(239.111233, 248.861449)"><g><path d="M 4.359375 -8.375 C 4.554688 -8.375 4.695312 -8.289062 4.78125 -8.125 L 8.59375 -0.625 C 8.695312 -0.4375 8.691406 -0.285156 8.578125 -0.171875 C 8.460938 -0.0546875 8.320312 0 8.15625 0 C 8.070312 0 7.988281 -0.015625 7.90625 -0.046875 C 7.832031 -0.0859375 7.773438 -0.15625 7.734375 -0.25 L 6.796875 -2.078125 L 1.9375 -2.078125 L 0.96875 -0.234375 C 0.882812 -0.078125 0.753906 0 0.578125 0 C 0.429688 0 0.296875 -0.0546875 0.171875 -0.171875 C 0.0546875 -0.296875 0.0351562 -0.441406 0.109375 -0.609375 L 3.9375 -8.125 C 3.976562 -8.207031 4.035156 -8.269531 4.109375 -8.3125 C 4.191406 -8.351562 4.273438 -8.375 4.359375 -8.375 Z M 4.359375 -6.984375 L 2.3125 -2.90625 L 6.40625 -2.90625 Z M 4.359375 -6.984375 "/></g></g></g><g fill="#ffffff" fill-opacity="1"><g transform="translate(248.482395, 248.861449)"><g><path d="M 7.015625 -8.234375 C 7.171875 -8.234375 7.289062 -8.1875 7.375 -8.09375 C 7.457031 -8.007812 7.5 -7.90625 7.5 -7.78125 C 7.5 -7.664062 7.457031 -7.5625 7.375 -7.46875 C 7.289062 -7.382812 7.171875 -7.34375 7.015625 -7.34375 L 4.125 -7.34375 L 4.140625 -0.484375 C 4.140625 -0.316406 4.085938 -0.191406 3.984375 -0.109375 C 3.878906 -0.0351562 3.769531 0 3.65625 0 C 3.539062 0 3.429688 -0.0351562 3.328125 -0.109375 C 3.234375 -0.191406 3.1875 -0.316406 3.1875 -0.484375 L 3.1875 -7.34375 L 0.3125 -7.34375 C 0.15625 -7.34375 0.0390625 -7.382812 -0.03125 -7.46875 C -0.101562 -7.5625 -0.140625 -7.664062 -0.140625 -7.78125 C -0.140625 -7.90625 -0.101562 -8.007812 -0.03125 -8.09375 C 0.0390625 -8.1875 0.15625 -8.234375 0.3125 -8.234375 Z M 7.015625 -8.234375 "/></g></g></g><g fill="#ffffff" fill-opacity="1"><g transform="translate(256.455667, 248.861449)"><g/></g></g><g fill="#ffffff" fill-opacity="1"><g transform="translate(260.33884, 248.861449)"><g><path d="M 0.109375 -7.734375 C 0.0234375 -7.910156 0.0390625 -8.0625 0.15625 -8.1875 C 0.28125 -8.3125 0.421875 -8.375 0.578125 -8.375 C 0.671875 -8.375 0.753906 -8.347656 0.828125 -8.296875 C 0.910156 -8.253906 0.972656 -8.1875 1.015625 -8.09375 L 4.34375 -1.421875 L 7.59375 -8.078125 C 7.632812 -8.171875 7.691406 -8.242188 7.765625 -8.296875 C 7.835938 -8.347656 7.914062 -8.375 8 -8.375 C 8.144531 -8.375 8.273438 -8.3125 8.390625 -8.1875 C 8.515625 -8.070312 8.546875 -7.925781 8.484375 -7.75 L 4.75 -0.140625 C 4.65625 0.0351562 4.515625 0.125 4.328125 0.125 C 4.242188 0.125 4.160156 0.0976562 4.078125 0.046875 C 4.003906 0.00390625 3.941406 -0.0703125 3.890625 -0.1875 Z M 0.109375 -7.734375 "/></g></g></g><g fill="#ffffff" fill-opacity="1"><g transform="translate(269.541742, 248.861449)"><g><path d="M 1.921875 -0.859375 L 7.03125 -0.859375 C 7.164062 -0.859375 7.269531 -0.8125 7.34375 -0.71875 C 7.425781 -0.632812 7.46875 -0.535156 7.46875 -0.421875 C 7.46875 -0.316406 7.429688 -0.21875 7.359375 -0.125 C 7.296875 -0.0390625 7.1875 0 7.03125 0 L 1.578125 0 C 1.398438 0 1.253906 -0.0546875 1.140625 -0.171875 C 1.035156 -0.285156 0.984375 -0.414062 0.984375 -0.5625 L 0.984375 -7.6875 C 0.984375 -7.832031 1.035156 -7.957031 1.140625 -8.0625 C 1.253906 -8.175781 1.398438 -8.234375 1.578125 -8.234375 L 7.046875 -8.234375 C 7.179688 -8.234375 7.285156 -8.191406 7.359375 -8.109375 C 7.429688 -8.023438 7.460938 -7.925781 7.453125 -7.8125 C 7.453125 -7.707031 7.414062 -7.613281 7.34375 -7.53125 C 7.269531 -7.445312 7.164062 -7.40625 7.03125 -7.40625 L 1.921875 -7.40625 L 1.921875 -4.5 L 6.78125 -4.5 C 6.914062 -4.5 7.015625 -4.457031 7.078125 -4.375 C 7.148438 -4.289062 7.1875 -4.191406 7.1875 -4.078125 C 7.1875 -3.960938 7.15625 -3.863281 7.09375 -3.78125 C 7.03125 -3.707031 6.925781 -3.671875 6.78125 -3.671875 L 1.921875 -3.671875 Z M 1.921875 -0.859375 "/></g></g></g><g fill="#ffffff" fill-opacity="1"><g transform="translate(102.238941, 262.633245)"><g><path d="M 1.09375 0 C 0.9375 0 0.796875 -0.0546875 0.671875 -0.171875 C 0.554688 -0.285156 0.5 -0.414062 0.5 -0.5625 L 0.5 -7.6875 C 0.5 -7.84375 0.554688 -7.972656 0.671875 -8.078125 C 0.796875 -8.179688 0.9375 -8.234375 1.09375 -8.234375 L 3.921875 -8.234375 C 4.566406 -8.234375 5.128906 -8.113281 5.609375 -7.875 C 6.085938 -7.644531 6.488281 -7.332031 6.8125 -6.9375 C 7.144531 -6.550781 7.390625 -6.113281 7.546875 -5.625 C 7.703125 -5.132812 7.78125 -4.632812 7.78125 -4.125 C 7.78125 -3.601562 7.703125 -3.097656 7.546875 -2.609375 C 7.390625 -2.117188 7.144531 -1.675781 6.8125 -1.28125 C 6.488281 -0.894531 6.085938 -0.582031 5.609375 -0.34375 C 5.128906 -0.113281 4.566406 0 3.921875 0 Z M 1.4375 -0.84375 L 3.921875 -0.84375 C 4.410156 -0.84375 4.835938 -0.9375 5.203125 -1.125 C 5.566406 -1.3125 5.867188 -1.5625 6.109375 -1.875 C 6.347656 -2.1875 6.53125 -2.535156 6.65625 -2.921875 C 6.78125 -3.316406 6.84375 -3.71875 6.84375 -4.125 C 6.84375 -4.53125 6.78125 -4.925781 6.65625 -5.3125 C 6.53125 -5.707031 6.347656 -6.0625 6.109375 -6.375 C 5.867188 -6.695312 5.566406 -6.945312 5.203125 -7.125 C 4.835938 -7.3125 4.410156 -7.40625 3.921875 -7.40625 L 1.4375 -7.40625 Z M 1.4375 -0.84375 "/></g></g></g><g fill="#ffffff" fill-opacity="1"><g transform="translate(111.092366, 262.633245)"><g><path d="M 1.921875 -0.859375 L 7.03125 -0.859375 C 7.164062 -0.859375 7.269531 -0.8125 7.34375 -0.71875 C 7.425781 -0.632812 7.46875 -0.535156 7.46875 -0.421875 C 7.46875 -0.316406 7.429688 -0.21875 7.359375 -0.125 C 7.296875 -0.0390625 7.1875 0 7.03125 0 L 1.578125 0 C 1.398438 0 1.253906 -0.0546875 1.140625 -0.171875 C 1.035156 -0.285156 0.984375 -0.414062 0.984375 -0.5625 L 0.984375 -7.6875 C 0.984375 -7.832031 1.035156 -7.957031 1.140625 -8.0625 C 1.253906 -8.175781 1.398438 -8.234375 1.578125 -8.234375 L 7.046875 -8.234375 C 7.179688 -8.234375 7.285156 -8.191406 7.359375 -8.109375 C 7.429688 -8.023438 7.460938 -7.925781 7.453125 -7.8125 C 7.453125 -7.707031 7.414062 -7.613281 7.34375 -7.53125 C 7.269531 -7.445312 7.164062 -7.40625 7.03125 -7.40625 L 1.921875 -7.40625 L 1.921875 -4.5 L 6.78125 -4.5 C 6.914062 -4.5 7.015625 -4.457031 7.078125 -4.375 C 7.148438 -4.289062 7.1875 -4.191406 7.1875 -4.078125 C 7.1875 -3.960938 7.15625 -3.863281 7.09375 -3.78125 C 7.03125 -3.707031 6.925781 -3.671875 6.78125 -3.671875 L 1.921875 -3.671875 Z M 1.921875 -0.859375 "/></g></g></g><g fill="#ffffff" fill-opacity="1"><g transform="translate(119.712807, 262.633245)"><g><path d="M 6.578125 -8.078125 C 6.703125 -8.179688 6.820312 -8.234375 6.9375 -8.234375 C 7.070312 -8.234375 7.1875 -8.1875 7.28125 -8.09375 C 7.375 -8.007812 7.425781 -7.90625 7.4375 -7.78125 C 7.445312 -7.664062 7.390625 -7.550781 7.265625 -7.4375 L 3.953125 -4.515625 L 7.53125 -0.796875 C 7.71875 -0.585938 7.765625 -0.398438 7.671875 -0.234375 C 7.578125 -0.078125 7.441406 0 7.265625 0 C 7.203125 0 7.132812 -0.015625 7.0625 -0.046875 C 6.988281 -0.078125 6.921875 -0.125 6.859375 -0.1875 L 3.296875 -3.9375 L 1.921875 -2.734375 L 1.921875 -0.453125 C 1.921875 -0.304688 1.867188 -0.191406 1.765625 -0.109375 C 1.671875 -0.0351562 1.5625 0 1.4375 0 C 1.320312 0 1.210938 -0.0351562 1.109375 -0.109375 C 1.015625 -0.191406 0.96875 -0.304688 0.96875 -0.453125 L 0.96875 -7.796875 C 0.96875 -7.941406 1.015625 -8.050781 1.109375 -8.125 C 1.210938 -8.195312 1.320312 -8.234375 1.4375 -8.234375 C 1.5625 -8.234375 1.671875 -8.195312 1.765625 -8.125 C 1.867188 -8.050781 1.921875 -7.941406 1.921875 -7.796875 L 1.921875 -3.78125 L 3.171875 -5.046875 Z M 6.578125 -8.078125 "/></g></g></g><g fill="#ffffff" fill-opacity="1"><g transform="translate(128.177934, 262.633245)"><g><path d="M 4.671875 0.125 C 3.898438 0.125 3.195312 -0.046875 2.5625 -0.390625 C 1.925781 -0.742188 1.421875 -1.25 1.046875 -1.90625 C 0.671875 -2.5625 0.484375 -3.347656 0.484375 -4.265625 C 0.484375 -4.984375 0.609375 -5.601562 0.859375 -6.125 C 1.117188 -6.644531 1.457031 -7.070312 1.875 -7.40625 C 2.300781 -7.738281 2.75 -7.984375 3.21875 -8.140625 C 3.695312 -8.296875 4.148438 -8.375 4.578125 -8.375 C 5.003906 -8.375 5.460938 -8.296875 5.953125 -8.140625 C 6.453125 -7.984375 6.914062 -7.738281 7.34375 -7.40625 C 7.78125 -7.082031 8.132812 -6.65625 8.40625 -6.125 C 8.6875 -5.601562 8.828125 -4.984375 8.828125 -4.265625 C 8.828125 -3.585938 8.710938 -2.976562 8.484375 -2.4375 C 8.253906 -1.894531 7.945312 -1.429688 7.5625 -1.046875 C 7.1875 -0.671875 6.75 -0.378906 6.25 -0.171875 C 5.75 0.0234375 5.222656 0.125 4.671875 0.125 Z M 1.453125 -4.21875 C 1.453125 -3.507812 1.59375 -2.894531 1.875 -2.375 C 2.164062 -1.863281 2.550781 -1.460938 3.03125 -1.171875 C 3.519531 -0.890625 4.066406 -0.75 4.671875 -0.75 C 5.265625 -0.75 5.800781 -0.882812 6.28125 -1.15625 C 6.757812 -1.4375 7.140625 -1.835938 7.421875 -2.359375 C 7.710938 -2.878906 7.859375 -3.5 7.859375 -4.21875 C 7.859375 -4.8125 7.753906 -5.316406 7.546875 -5.734375 C 7.335938 -6.148438 7.066406 -6.488281 6.734375 -6.75 C 6.398438 -7.007812 6.046875 -7.195312 5.671875 -7.3125 C 5.296875 -7.4375 4.9375 -7.5 4.59375 -7.5 C 4.269531 -7.5 3.921875 -7.441406 3.546875 -7.328125 C 3.179688 -7.210938 2.835938 -7.023438 2.515625 -6.765625 C 2.203125 -6.515625 1.945312 -6.179688 1.75 -5.765625 C 1.550781 -5.347656 1.453125 -4.832031 1.453125 -4.21875 Z M 1.453125 -4.21875 "/></g></g></g><g fill="#ffffff" fill-opacity="1"><g transform="translate(138.170375, 262.633245)"><g><path d="M 1.9375 -2.875 L 1.9375 -0.453125 C 1.9375 -0.304688 1.882812 -0.191406 1.78125 -0.109375 C 1.675781 -0.0351562 1.566406 0 1.453125 0 C 1.335938 0 1.226562 -0.0351562 1.125 -0.109375 C 1.03125 -0.191406 0.984375 -0.300781 0.984375 -0.4375 L 0.984375 -7.78125 C 0.984375 -7.914062 1.023438 -8.023438 1.109375 -8.109375 C 1.203125 -8.191406 1.320312 -8.234375 1.46875 -8.234375 L 4.53125 -8.234375 C 5.28125 -8.234375 5.90625 -8.101562 6.40625 -7.84375 C 6.90625 -7.59375 7.28125 -7.257812 7.53125 -6.84375 C 7.789062 -6.425781 7.921875 -5.960938 7.921875 -5.453125 C 7.921875 -4.796875 7.734375 -4.242188 7.359375 -3.796875 C 6.984375 -3.359375 6.398438 -3.066406 5.609375 -2.921875 L 7.59375 -0.796875 C 7.707031 -0.671875 7.757812 -0.546875 7.75 -0.421875 C 7.738281 -0.304688 7.6875 -0.207031 7.59375 -0.125 C 7.507812 -0.0390625 7.410156 0 7.296875 0 C 7.160156 0 7.039062 -0.0546875 6.9375 -0.171875 L 4.4375 -2.875 Z M 1.9375 -3.6875 L 4.546875 -3.6875 C 5.378906 -3.6875 5.988281 -3.851562 6.375 -4.1875 C 6.757812 -4.519531 6.953125 -4.925781 6.953125 -5.40625 C 6.941406 -5.96875 6.722656 -6.4375 6.296875 -6.8125 C 5.878906 -7.1875 5.296875 -7.375 4.546875 -7.375 L 1.9375 -7.375 Z M 1.9375 -3.6875 "/></g></g></g><g fill="#ffffff" fill-opacity="1"><g transform="translate(147.023799, 262.633245)"><g><path d="M 4.359375 -8.375 C 4.554688 -8.375 4.695312 -8.289062 4.78125 -8.125 L 8.59375 -0.625 C 8.695312 -0.4375 8.691406 -0.285156 8.578125 -0.171875 C 8.460938 -0.0546875 8.320312 0 8.15625 0 C 8.070312 0 7.988281 -0.015625 7.90625 -0.046875 C 7.832031 -0.0859375 7.773438 -0.15625 7.734375 -0.25 L 6.796875 -2.078125 L 1.9375 -2.078125 L 0.96875 -0.234375 C 0.882812 -0.078125 0.753906 0 0.578125 0 C 0.429688 0 0.296875 -0.0546875 0.171875 -0.171875 C 0.0546875 -0.296875 0.0351562 -0.441406 0.109375 -0.609375 L 3.9375 -8.125 C 3.976562 -8.207031 4.035156 -8.269531 4.109375 -8.3125 C 4.191406 -8.351562 4.273438 -8.375 4.359375 -8.375 Z M 4.359375 -6.984375 L 2.3125 -2.90625 L 6.40625 -2.90625 Z M 4.359375 -6.984375 "/></g></g></g><g fill="#ffffff" fill-opacity="1"><g transform="translate(156.39496, 262.633245)"><g><path d="M 0.28125 -1.8125 C 0.25 -1.957031 0.269531 -2.078125 0.34375 -2.171875 C 0.425781 -2.265625 0.535156 -2.320312 0.671875 -2.34375 C 0.804688 -2.375 0.925781 -2.363281 1.03125 -2.3125 C 1.144531 -2.257812 1.21875 -2.171875 1.25 -2.046875 C 1.332031 -1.773438 1.472656 -1.554688 1.671875 -1.390625 C 1.878906 -1.234375 2.117188 -1.109375 2.390625 -1.015625 C 2.660156 -0.929688 2.941406 -0.875 3.234375 -0.84375 C 3.523438 -0.8125 3.796875 -0.796875 4.046875 -0.796875 C 4.328125 -0.796875 4.628906 -0.816406 4.953125 -0.859375 C 5.273438 -0.910156 5.582031 -0.988281 5.875 -1.09375 C 6.164062 -1.207031 6.398438 -1.367188 6.578125 -1.578125 C 6.765625 -1.785156 6.859375 -2.054688 6.859375 -2.390625 C 6.859375 -2.671875 6.78125 -2.890625 6.625 -3.046875 C 6.476562 -3.210938 6.269531 -3.335938 6 -3.421875 C 5.738281 -3.515625 5.441406 -3.578125 5.109375 -3.609375 C 4.773438 -3.648438 4.429688 -3.6875 4.078125 -3.71875 C 3.628906 -3.75 3.1875 -3.796875 2.75 -3.859375 C 2.3125 -3.921875 1.910156 -4.019531 1.546875 -4.15625 C 1.191406 -4.300781 0.90625 -4.515625 0.6875 -4.796875 C 0.476562 -5.085938 0.375 -5.472656 0.375 -5.953125 C 0.375 -6.390625 0.476562 -6.757812 0.6875 -7.0625 C 0.90625 -7.363281 1.191406 -7.609375 1.546875 -7.796875 C 1.898438 -7.992188 2.285156 -8.140625 2.703125 -8.234375 C 3.117188 -8.328125 3.523438 -8.375 3.921875 -8.375 C 4.265625 -8.375 4.617188 -8.347656 4.984375 -8.296875 C 5.347656 -8.253906 5.695312 -8.171875 6.03125 -8.046875 C 6.375 -7.929688 6.671875 -7.757812 6.921875 -7.53125 C 7.179688 -7.300781 7.382812 -7 7.53125 -6.625 C 7.582031 -6.5 7.570312 -6.390625 7.5 -6.296875 C 7.4375 -6.210938 7.347656 -6.148438 7.234375 -6.109375 C 7.117188 -6.078125 7.003906 -6.078125 6.890625 -6.109375 C 6.773438 -6.140625 6.691406 -6.210938 6.640625 -6.328125 C 6.515625 -6.648438 6.296875 -6.890625 5.984375 -7.046875 C 5.671875 -7.203125 5.328125 -7.300781 4.953125 -7.34375 C 4.585938 -7.382812 4.25 -7.40625 3.9375 -7.40625 C 3.71875 -7.40625 3.460938 -7.382812 3.171875 -7.34375 C 2.890625 -7.300781 2.613281 -7.222656 2.34375 -7.109375 C 2.070312 -7.003906 1.84375 -6.859375 1.65625 -6.671875 C 1.476562 -6.484375 1.390625 -6.242188 1.390625 -5.953125 C 1.390625 -5.578125 1.515625 -5.296875 1.765625 -5.109375 C 2.023438 -4.929688 2.367188 -4.8125 2.796875 -4.75 C 3.222656 -4.6875 3.6875 -4.628906 4.1875 -4.578125 C 4.625 -4.546875 5.0625 -4.5 5.5 -4.4375 C 5.9375 -4.382812 6.332031 -4.289062 6.6875 -4.15625 C 7.050781 -4.03125 7.335938 -3.828125 7.546875 -3.546875 C 7.753906 -3.265625 7.859375 -2.878906 7.859375 -2.390625 C 7.859375 -1.898438 7.738281 -1.488281 7.5 -1.15625 C 7.257812 -0.832031 6.941406 -0.578125 6.546875 -0.390625 C 6.160156 -0.203125 5.75 -0.0703125 5.3125 0 C 4.875 0.0820312 4.453125 0.125 4.046875 0.125 C 3.722656 0.125 3.363281 0.0976562 2.96875 0.046875 C 2.582031 -0.00390625 2.203125 -0.101562 1.828125 -0.25 C 1.460938 -0.40625 1.140625 -0.609375 0.859375 -0.859375 C 0.578125 -1.109375 0.382812 -1.425781 0.28125 -1.8125 Z M 0.28125 -1.8125 "/></g></g></g><g fill="#ffffff" fill-opacity="1"><g transform="translate(165.106006, 262.633245)"><g><path d="M 3.390625 -3.328125 L 0.203125 -7.53125 C 0.0664062 -7.71875 0.0546875 -7.878906 0.171875 -8.015625 C 0.296875 -8.160156 0.441406 -8.234375 0.609375 -8.234375 C 0.785156 -8.234375 0.921875 -8.160156 1.015625 -8.015625 L 3.859375 -4.140625 L 6.71875 -8.015625 C 6.8125 -8.160156 6.945312 -8.234375 7.125 -8.234375 C 7.28125 -8.234375 7.410156 -8.164062 7.515625 -8.03125 C 7.628906 -7.90625 7.625 -7.742188 7.5 -7.546875 L 4.359375 -3.328125 L 4.359375 -0.484375 C 4.359375 -0.316406 4.304688 -0.191406 4.203125 -0.109375 C 4.097656 -0.0351562 3.988281 0 3.875 0 C 3.738281 0 3.625 -0.0351562 3.53125 -0.109375 C 3.4375 -0.191406 3.390625 -0.316406 3.390625 -0.484375 Z M 3.390625 -3.328125 "/></g></g></g><g fill="#ffffff" fill-opacity="1"><g transform="translate(173.441698, 262.633245)"><g><path d="M 4.671875 0.125 C 3.898438 0.125 3.195312 -0.046875 2.5625 -0.390625 C 1.925781 -0.742188 1.421875 -1.25 1.046875 -1.90625 C 0.671875 -2.5625 0.484375 -3.347656 0.484375 -4.265625 C 0.484375 -4.984375 0.609375 -5.601562 0.859375 -6.125 C 1.117188 -6.644531 1.457031 -7.070312 1.875 -7.40625 C 2.300781 -7.738281 2.75 -7.984375 3.21875 -8.140625 C 3.695312 -8.296875 4.148438 -8.375 4.578125 -8.375 C 5.003906 -8.375 5.460938 -8.296875 5.953125 -8.140625 C 6.453125 -7.984375 6.914062 -7.738281 7.34375 -7.40625 C 7.78125 -7.082031 8.132812 -6.65625 8.40625 -6.125 C 8.6875 -5.601562 8.828125 -4.984375 8.828125 -4.265625 C 8.828125 -3.585938 8.710938 -2.976562 8.484375 -2.4375 C 8.253906 -1.894531 7.945312 -1.429688 7.5625 -1.046875 C 7.1875 -0.671875 6.75 -0.378906 6.25 -0.171875 C 5.75 0.0234375 5.222656 0.125 4.671875 0.125 Z M 1.453125 -4.21875 C 1.453125 -3.507812 1.59375 -2.894531 1.875 -2.375 C 2.164062 -1.863281 2.550781 -1.460938 3.03125 -1.171875 C 3.519531 -0.890625 4.066406 -0.75 4.671875 -0.75 C 5.265625 -0.75 5.800781 -0.882812 6.28125 -1.15625 C 6.757812 -1.4375 7.140625 -1.835938 7.421875 -2.359375 C 7.710938 -2.878906 7.859375 -3.5 7.859375 -4.21875 C 7.859375 -4.8125 7.753906 -5.316406 7.546875 -5.734375 C 7.335938 -6.148438 7.066406 -6.488281 6.734375 -6.75 C 6.398438 -7.007812 6.046875 -7.195312 5.671875 -7.3125 C 5.296875 -7.4375 4.9375 -7.5 4.59375 -7.5 C 4.269531 -7.5 3.921875 -7.441406 3.546875 -7.328125 C 3.179688 -7.210938 2.835938 -7.023438 2.515625 -6.765625 C 2.203125 -6.515625 1.945312 -6.179688 1.75 -5.765625 C 1.550781 -5.347656 1.453125 -4.832031 1.453125 -4.21875 Z M 1.453125 -4.21875 "/></g></g></g><g fill="#ffffff" fill-opacity="1"><g transform="translate(183.434141, 262.633245)"><g><path d="M 6.828125 -7.828125 C 6.828125 -7.960938 6.878906 -8.0625 6.984375 -8.125 C 7.085938 -8.195312 7.203125 -8.234375 7.328125 -8.234375 C 7.453125 -8.234375 7.5625 -8.203125 7.65625 -8.140625 C 7.757812 -8.078125 7.8125 -7.972656 7.8125 -7.828125 L 7.8125 -0.5625 C 7.8125 -0.363281 7.75 -0.21875 7.625 -0.125 C 7.5 -0.0390625 7.363281 0 7.21875 0 C 7.101562 0 6.992188 -0.0234375 6.890625 -0.078125 C 6.785156 -0.128906 6.703125 -0.203125 6.640625 -0.296875 L 1.796875 -6.71875 L 1.90625 -4.9375 L 1.90625 -0.484375 C 1.90625 -0.316406 1.851562 -0.191406 1.75 -0.109375 C 1.644531 -0.0351562 1.53125 0 1.40625 0 C 1.289062 0 1.179688 -0.0351562 1.078125 -0.109375 C 0.972656 -0.191406 0.921875 -0.316406 0.921875 -0.484375 L 0.921875 -7.671875 C 0.921875 -7.859375 0.972656 -8 1.078125 -8.09375 C 1.179688 -8.1875 1.300781 -8.234375 1.4375 -8.234375 C 1.664062 -8.234375 1.84375 -8.132812 1.96875 -7.9375 L 6.953125 -1.390625 L 6.828125 -3.34375 Z M 6.828125 -7.828125 "/></g></g></g><g fill="#ffffff" fill-opacity="1"><g transform="translate(192.727645, 262.633245)"><g/></g></g><g fill="#ffffff" fill-opacity="1"><g transform="translate(196.610818, 262.633245)"><g><path d="M 1.890625 -4.515625 L 6.65625 -4.515625 L 6.65625 -7.765625 C 6.65625 -7.921875 6.703125 -8.035156 6.796875 -8.109375 C 6.898438 -8.191406 7.015625 -8.234375 7.140625 -8.234375 C 7.253906 -8.234375 7.359375 -8.191406 7.453125 -8.109375 C 7.554688 -8.035156 7.609375 -7.921875 7.609375 -7.765625 L 7.609375 -0.5 C 7.609375 -0.332031 7.554688 -0.207031 7.453125 -0.125 C 7.359375 -0.0390625 7.25 0 7.125 0 C 7.007812 0 6.898438 -0.0390625 6.796875 -0.125 C 6.703125 -0.207031 6.65625 -0.332031 6.65625 -0.5 L 6.65625 -3.703125 L 1.890625 -3.703125 L 1.890625 -0.484375 C 1.890625 -0.316406 1.84375 -0.191406 1.75 -0.109375 C 1.664062 -0.0351562 1.566406 0 1.453125 0 C 1.328125 0 1.210938 -0.0390625 1.109375 -0.125 C 1.003906 -0.207031 0.953125 -0.328125 0.953125 -0.484375 L 0.953125 -7.765625 C 0.953125 -7.921875 1 -8.035156 1.09375 -8.109375 C 1.195312 -8.191406 1.300781 -8.234375 1.40625 -8.234375 C 1.53125 -8.234375 1.640625 -8.191406 1.734375 -8.109375 C 1.835938 -8.023438 1.890625 -7.910156 1.890625 -7.765625 Z M 1.890625 -4.515625 "/></g></g></g><g fill="#ffffff" fill-opacity="1"><g transform="translate(205.800775, 262.633245)"><g><path d="M 1.375 -10.5625 C 1.53125 -10.5625 1.675781 -10.5 1.8125 -10.375 C 1.945312 -10.257812 2.015625 -10.113281 2.015625 -9.9375 C 2.015625 -9.71875 1.945312 -9.554688 1.8125 -9.453125 C 1.675781 -9.347656 1.53125 -9.296875 1.375 -9.296875 C 1.207031 -9.296875 1.054688 -9.351562 0.921875 -9.46875 C 0.785156 -9.59375 0.71875 -9.75 0.71875 -9.9375 C 0.71875 -10.113281 0.785156 -10.257812 0.921875 -10.375 C 1.054688 -10.5 1.207031 -10.5625 1.375 -10.5625 Z M 0.890625 -7.765625 C 0.890625 -7.921875 0.941406 -8.035156 1.046875 -8.109375 C 1.148438 -8.191406 1.257812 -8.234375 1.375 -8.234375 C 1.488281 -8.234375 1.597656 -8.191406 1.703125 -8.109375 C 1.804688 -8.035156 1.859375 -7.921875 1.859375 -7.765625 L 1.859375 -0.453125 C 1.859375 -0.304688 1.804688 -0.191406 1.703125 -0.109375 C 1.597656 -0.0351562 1.488281 0 1.375 0 C 1.25 0 1.132812 -0.0351562 1.03125 -0.109375 C 0.9375 -0.179688 0.890625 -0.296875 0.890625 -0.453125 Z M 0.890625 -7.765625 "/></g></g></g><g fill="#ffffff" fill-opacity="1"><g transform="translate(208.997953, 262.633245)"><g><path d="M 1.609375 -0.890625 L 7.140625 -0.890625 C 7.296875 -0.890625 7.410156 -0.847656 7.484375 -0.765625 C 7.566406 -0.679688 7.609375 -0.578125 7.609375 -0.453125 C 7.609375 -0.335938 7.566406 -0.234375 7.484375 -0.140625 C 7.410156 -0.0546875 7.296875 -0.0078125 7.140625 0 L 0.734375 0 C 0.484375 0 0.320312 -0.0820312 0.25 -0.25 C 0.175781 -0.414062 0.210938 -0.582031 0.359375 -0.75 L 6.171875 -7.390625 L 0.921875 -7.390625 C 0.785156 -7.390625 0.679688 -7.429688 0.609375 -7.515625 C 0.535156 -7.597656 0.5 -7.695312 0.5 -7.8125 C 0.5 -7.925781 0.53125 -8.023438 0.59375 -8.109375 C 0.664062 -8.191406 0.773438 -8.234375 0.921875 -8.234375 L 7.078125 -8.234375 C 7.347656 -8.234375 7.515625 -8.148438 7.578125 -7.984375 C 7.648438 -7.828125 7.613281 -7.65625 7.46875 -7.46875 Z M 1.609375 -0.890625 "/></g></g></g><g fill="#ffffff" fill-opacity="1"><g transform="translate(217.294811, 262.633245)"><g><path d="M 8.1875 -7.96875 C 8.25 -8.0625 8.316406 -8.128906 8.390625 -8.171875 C 8.472656 -8.210938 8.554688 -8.234375 8.640625 -8.234375 C 8.765625 -8.234375 8.867188 -8.191406 8.953125 -8.109375 C 9.035156 -8.023438 9.078125 -7.898438 9.078125 -7.734375 L 9.078125 -0.46875 C 9.078125 -0.3125 9.03125 -0.191406 8.9375 -0.109375 C 8.84375 -0.0351562 8.734375 0 8.609375 0 C 8.492188 0 8.382812 -0.0351562 8.28125 -0.109375 C 8.1875 -0.191406 8.140625 -0.3125 8.140625 -0.46875 L 8.140625 -6.171875 L 5.484375 -2.03125 C 5.378906 -1.851562 5.234375 -1.765625 5.046875 -1.765625 C 4.867188 -1.765625 4.71875 -1.851562 4.59375 -2.03125 L 1.953125 -6.140625 L 1.953125 -0.46875 C 1.953125 -0.3125 1.90625 -0.191406 1.8125 -0.109375 C 1.71875 -0.0351562 1.609375 0 1.484375 0 C 1.367188 0 1.257812 -0.0351562 1.15625 -0.109375 C 1.0625 -0.191406 1.015625 -0.3125 1.015625 -0.46875 L 1.015625 -7.71875 C 1.015625 -7.882812 1.0625 -8.007812 1.15625 -8.09375 C 1.25 -8.1875 1.351562 -8.234375 1.46875 -8.234375 C 1.539062 -8.234375 1.613281 -8.207031 1.6875 -8.15625 C 1.769531 -8.113281 1.835938 -8.046875 1.890625 -7.953125 L 5.046875 -3.046875 Z M 8.1875 -7.96875 "/></g></g></g><g fill="#ffffff" fill-opacity="1"><g transform="translate(228.025028, 262.633245)"><g><path d="M 1.921875 -0.859375 L 7.03125 -0.859375 C 7.164062 -0.859375 7.269531 -0.8125 7.34375 -0.71875 C 7.425781 -0.632812 7.46875 -0.535156 7.46875 -0.421875 C 7.46875 -0.316406 7.429688 -0.21875 7.359375 -0.125 C 7.296875 -0.0390625 7.1875 0 7.03125 0 L 1.578125 0 C 1.398438 0 1.253906 -0.0546875 1.140625 -0.171875 C 1.035156 -0.285156 0.984375 -0.414062 0.984375 -0.5625 L 0.984375 -7.6875 C 0.984375 -7.832031 1.035156 -7.957031 1.140625 -8.0625 C 1.253906 -8.175781 1.398438 -8.234375 1.578125 -8.234375 L 7.046875 -8.234375 C 7.179688 -8.234375 7.285156 -8.191406 7.359375 -8.109375 C 7.429688 -8.023438 7.460938 -7.925781 7.453125 -7.8125 C 7.453125 -7.707031 7.414062 -7.613281 7.34375 -7.53125 C 7.269531 -7.445312 7.164062 -7.40625 7.03125 -7.40625 L 1.921875 -7.40625 L 1.921875 -4.5 L 6.78125 -4.5 C 6.914062 -4.5 7.015625 -4.457031 7.078125 -4.375 C 7.148438 -4.289062 7.1875 -4.191406 7.1875 -4.078125 C 7.1875 -3.960938 7.15625 -3.863281 7.09375 -3.78125 C 7.03125 -3.707031 6.925781 -3.671875 6.78125 -3.671875 L 1.921875 -3.671875 Z M 1.921875 -0.859375 "/></g></g></g><g fill="#ffffff" fill-opacity="1"><g transform="translate(236.645471, 262.633245)"><g><path d="M 7.015625 -8.234375 C 7.171875 -8.234375 7.289062 -8.1875 7.375 -8.09375 C 7.457031 -8.007812 7.5 -7.90625 7.5 -7.78125 C 7.5 -7.664062 7.457031 -7.5625 7.375 -7.46875 C 7.289062 -7.382812 7.171875 -7.34375 7.015625 -7.34375 L 4.125 -7.34375 L 4.140625 -0.484375 C 4.140625 -0.316406 4.085938 -0.191406 3.984375 -0.109375 C 3.878906 -0.0351562 3.769531 0 3.65625 0 C 3.539062 0 3.429688 -0.0351562 3.328125 -0.109375 C 3.234375 -0.191406 3.1875 -0.316406 3.1875 -0.484375 L 3.1875 -7.34375 L 0.3125 -7.34375 C 0.15625 -7.34375 0.0390625 -7.382812 -0.03125 -7.46875 C -0.101562 -7.5625 -0.140625 -7.664062 -0.140625 -7.78125 C -0.140625 -7.90625 -0.101562 -8.007812 -0.03125 -8.09375 C 0.0390625 -8.1875 0.15625 -8.234375 0.3125 -8.234375 Z M 7.015625 -8.234375 "/></g></g></g><g fill="#ffffff" fill-opacity="1"><g transform="translate(244.618743, 262.633245)"><g><path d="M 1.484375 0 C 1.148438 0 0.984375 -0.160156 0.984375 -0.484375 L 0.984375 -7.78125 C 0.984375 -7.9375 1.035156 -8.050781 1.140625 -8.125 C 1.242188 -8.195312 1.351562 -8.234375 1.46875 -8.234375 C 1.582031 -8.234375 1.6875 -8.195312 1.78125 -8.125 C 1.882812 -8.050781 1.9375 -7.9375 1.9375 -7.78125 L 1.9375 -0.859375 L 6.78125 -0.859375 C 6.945312 -0.859375 7.070312 -0.8125 7.15625 -0.71875 C 7.238281 -0.632812 7.28125 -0.535156 7.28125 -0.421875 C 7.28125 -0.316406 7.238281 -0.21875 7.15625 -0.125 C 7.070312 -0.0390625 6.945312 0 6.78125 0 Z M 1.484375 0 "/></g></g></g><g fill="#ffffff" fill-opacity="1"><g transform="translate(252.423756, 262.633245)"><g><path d="M 1.921875 -0.859375 L 7.03125 -0.859375 C 7.164062 -0.859375 7.269531 -0.8125 7.34375 -0.71875 C 7.425781 -0.632812 7.46875 -0.535156 7.46875 -0.421875 C 7.46875 -0.316406 7.429688 -0.21875 7.359375 -0.125 C 7.296875 -0.0390625 7.1875 0 7.03125 0 L 1.578125 0 C 1.398438 0 1.253906 -0.0546875 1.140625 -0.171875 C 1.035156 -0.285156 0.984375 -0.414062 0.984375 -0.5625 L 0.984375 -7.6875 C 0.984375 -7.832031 1.035156 -7.957031 1.140625 -8.0625 C 1.253906 -8.175781 1.398438 -8.234375 1.578125 -8.234375 L 7.046875 -8.234375 C 7.179688 -8.234375 7.285156 -8.191406 7.359375 -8.109375 C 7.429688 -8.023438 7.460938 -7.925781 7.453125 -7.8125 C 7.453125 -7.707031 7.414062 -7.613281 7.34375 -7.53125 C 7.269531 -7.445312 7.164062 -7.40625 7.03125 -7.40625 L 1.921875 -7.40625 L 1.921875 -4.5 L 6.78125 -4.5 C 6.914062 -4.5 7.015625 -4.457031 7.078125 -4.375 C 7.148438 -4.289062 7.1875 -4.191406 7.1875 -4.078125 C 7.1875 -3.960938 7.15625 -3.863281 7.09375 -3.78125 C 7.03125 -3.707031 6.925781 -3.671875 6.78125 -3.671875 L 1.921875 -3.671875 Z M 1.921875 -0.859375 "/></g></g></g><g fill="#ffffff" fill-opacity="1"><g transform="translate(261.044199, 262.633245)"><g><path d="M 1.9375 -2.875 L 1.9375 -0.453125 C 1.9375 -0.304688 1.882812 -0.191406 1.78125 -0.109375 C 1.675781 -0.0351562 1.566406 0 1.453125 0 C 1.335938 0 1.226562 -0.0351562 1.125 -0.109375 C 1.03125 -0.191406 0.984375 -0.300781 0.984375 -0.4375 L 0.984375 -7.78125 C 0.984375 -7.914062 1.023438 -8.023438 1.109375 -8.109375 C 1.203125 -8.191406 1.320312 -8.234375 1.46875 -8.234375 L 4.53125 -8.234375 C 5.28125 -8.234375 5.90625 -8.101562 6.40625 -7.84375 C 6.90625 -7.59375 7.28125 -7.257812 7.53125 -6.84375 C 7.789062 -6.425781 7.921875 -5.960938 7.921875 -5.453125 C 7.921875 -4.796875 7.734375 -4.242188 7.359375 -3.796875 C 6.984375 -3.359375 6.398438 -3.066406 5.609375 -2.921875 L 7.59375 -0.796875 C 7.707031 -0.671875 7.757812 -0.546875 7.75 -0.421875 C 7.738281 -0.304688 7.6875 -0.207031 7.59375 -0.125 C 7.507812 -0.0390625 7.410156 0 7.296875 0 C 7.160156 0 7.039062 -0.0546875 6.9375 -0.171875 L 4.4375 -2.875 Z M 1.9375 -3.6875 L 4.546875 -3.6875 C 5.378906 -3.6875 5.988281 -3.851562 6.375 -4.1875 C 6.757812 -4.519531 6.953125 -4.925781 6.953125 -5.40625 C 6.941406 -5.96875 6.722656 -6.4375 6.296875 -6.8125 C 5.878906 -7.1875 5.296875 -7.375 4.546875 -7.375 L 1.9375 -7.375 Z M 1.9375 -3.6875 "/></g></g></g><g fill="#ffffff" fill-opacity="1"><g transform="translate(269.897626, 262.633245)"><g><path d="M 1.375 -10.5625 C 1.53125 -10.5625 1.675781 -10.5 1.8125 -10.375 C 1.945312 -10.257812 2.015625 -10.113281 2.015625 -9.9375 C 2.015625 -9.71875 1.945312 -9.554688 1.8125 -9.453125 C 1.675781 -9.347656 1.53125 -9.296875 1.375 -9.296875 C 1.207031 -9.296875 1.054688 -9.351562 0.921875 -9.46875 C 0.785156 -9.59375 0.71875 -9.75 0.71875 -9.9375 C 0.71875 -10.113281 0.785156 -10.257812 0.921875 -10.375 C 1.054688 -10.5 1.207031 -10.5625 1.375 -10.5625 Z M 0.890625 -7.765625 C 0.890625 -7.921875 0.941406 -8.035156 1.046875 -8.109375 C 1.148438 -8.191406 1.257812 -8.234375 1.375 -8.234375 C 1.488281 -8.234375 1.597656 -8.191406 1.703125 -8.109375 C 1.804688 -8.035156 1.859375 -7.921875 1.859375 -7.765625 L 1.859375 -0.453125 C 1.859375 -0.304688 1.804688 -0.191406 1.703125 -0.109375 C 1.597656 -0.0351562 1.488281 0 1.375 0 C 1.25 0 1.132812 -0.0351562 1.03125 -0.109375 C 0.9375 -0.179688 0.890625 -0.296875 0.890625 -0.453125 Z M 0.890625 -7.765625 "/></g></g></g><path stroke-linecap="butt" transform="matrix(0.75, 0.000000000000002597, -0.000000000000002597, 0.75, 283.512173, 243.622705)" fill="none" stroke-linejoin="miter" d="M -0.000605777 5.997852 L 32.837938 5.997852 " stroke="#ffffff" stroke-width="12" stroke-opacity="1" stroke-miterlimit="4"/><path stroke-linecap="butt" transform="matrix(0.75, 0, 0, 0.75, 66.859555, 243.622705)" fill="none" stroke-linejoin="miter" d="M -0.000240413 5.997852 L 32.838303 5.997852 " stroke="#ffffff" stroke-width="12" stroke-opacity="1" stroke-miterlimit="4"/></svg>